<svg id="_x33_0" enable-background="new 0 0 64 64" height="512" viewBox="0 0 64 64" width="512" xmlns="http://www.w3.org/2000/svg"><g><g><g><path d="m32 59c0-.83-.34-1.58-.88-2.12s-1.29-.88-2.12-.88l-.2-.39c-.49-.99-1.5-1.61-2.6-1.61-.77 0-1.51.31-2.05.85l-1.15 1.15-8.05-1.46c-1.31-.24-2.62-.4-3.95-.47v-.01-3.82c0-1.47-.34-2.92-1-4.24.96-.96 1.71-2.09 2.22-3.32.51-1.24.78-2.56.78-3.92 0-1.17-.12-2.34-.34-3.48l-.66-3.28h6v1c0 1.94.78 3.68 2.05 4.95s3.01 2.05 4.95 2.05c3.87 0 7-3.13 7-7v-1h6v6.96c-.4.22-.79.47-1.15.76-.9.72-1.61 1.62-2.1 2.64-.49 1.01-.75 2.14-.75 3.29v.02c0 2.12.88 4.15 2.44 5.6l1.56 1.44v.01 9.28h-9c1.66 0 3-1.34 3-3z" fill="#fcd770"/></g><g><path d="m22.43 10.23-1.29.51c-1.46.58-2.53 1.8-2.94 3.26h-1.2c-.9 0-1.7.39-2.24 1.02l-.01-.01-.02-.1c-.49-1.93-.73-3.92-.73-5.91 0-.83.34-1.58.88-2.12s1.29-.88 2.12-.88c1.23-2.45 3.73-4 6.47-4h4.3c2.27 0 4.33.92 5.82 2.41s2.41 3.55 2.41 5.82c0 .51-.05 1.02-.14 1.52l-.61 3.26-.01.01c-.54-.63-1.34-1.02-2.24-1.02h-1-4c-2.52 0-4.69-1.56-5.57-3.77z" fill="#656d78"/></g><g><path d="m62 45.65v.02c0 2.12-.88 4.15-2.44 5.6l-11.56 10.73-10-9.28v-.01l-1.56-1.44c-1.56-1.45-2.44-3.48-2.44-5.6v-.02c0-1.15.26-2.28.75-3.29.49-1.02 1.2-1.92 2.1-2.64.36-.29.75-.54 1.15-.76 1.15-.63 2.43-.96 3.75-.96 2.08 0 4.08.83 5.55 2.3l.7.7.7-.7c1.47-1.47 3.47-2.3 5.55-2.3 1.16 0 2.29.26 3.33.75.56.26 1.08.58 1.57.97 1.8 1.44 2.85 3.62 2.85 5.93z" fill="#ff826e"/></g><g><path d="m58 46-10 10-6-6 3-3 3 3 7-7z" fill="#e6e9ed"/></g><g><path d="m62 14v17.58c0 3.05-1.73 5.82-4.42 7.16v.01c-1.04-.49-2.17-.75-3.33-.75-2.08 0-4.08.83-5.55 2.3l-.7.7-.7-.7c-1.47-1.47-3.47-2.3-5.55-2.3-1.32 0-2.6.33-3.75.96v-6.96h.76c1.36 0 2.68.27 3.92.78 1.23.51 2.36 1.26 3.32 2.22 1.32-.66 2.77-1 4.24-1h3.76c0-3.32.36-6.64 1.08-9.88l.92-4.12s-.6-.6-1.15-1.15c-.54-.54-.85-1.28-.85-2.06v-.04c0-1.07.61-2.05 1.57-2.53l.43-.22c0-.83.34-1.58.88-2.12s1.29-.88 2.12-.88c1.66 0 3 1.34 3 3z" fill="#f0d0b4"/></g><g><path d="m11 54.07c1.33.07 2.64.23 3.95.47l8.05 1.46 1.15-1.15c.54-.54 1.28-.85 2.05-.85 1.1 0 2.11.62 2.6 1.61l.2.39c.83 0 1.58.34 2.12.88s.88 1.29.88 2.12c0 1.66-1.34 3-3 3h-17.58c-3.27 0-6.22-1.99-7.43-5.03-.39-.97-.77-1.93-1.1-2.75-.59-1.47-.89-3.03-.89-4.63v-.07c0-2.04.54-4.04 1.55-5.8l-.61-1.08c-.62-1.07-.94-2.29-.94-3.53 0-3.93 3.18-7.11 7.11-7.11h2.89l.66 3.28c.22 1.14.34 2.31.34 3.48 0 1.36-.27 2.68-.78 3.92-.51 1.23-1.26 2.36-2.22 3.32.66 1.32 1 2.77 1 4.24v3.82z" fill="#f0d0b4"/></g><g><path d="m17 14h1.2c-.13.44-.2.91-.2 1.39v4.61h-1c-.83 0-1.58-.34-2.12-.88s-.88-1.29-.88-2.12c0-.76.29-1.45.76-1.98.54-.63 1.34-1.02 2.24-1.02z" fill="#f0d0b4"/></g><g><path d="m33 14c.9 0 1.7.39 2.24 1.02.47.53.76 1.22.76 1.98 0 .83-.34 1.58-.88 2.12s-1.29.88-2.12.88h-1v-6z" fill="#f0d0b4"/></g><g><path d="m32 32v1c0 3.87-3.13 7-7 7-1.94 0-3.68-.78-4.95-2.05s-2.05-3.01-2.05-4.95v-1c1.93-1.29 3.31-3.25 3.87-5.5l.06-.21c.92.46 1.96.71 3.07.71s2.15-.25 3.07-.71l.06.21c.56 2.25 1.94 4.21 3.87 5.5z" fill="#f0d0b4"/></g><g><path d="m18 20v-4.61c0-.48.07-.95.2-1.39.41-1.46 1.48-2.68 2.94-3.26l1.29-.51c.88 2.21 3.05 3.77 5.57 3.77h4v6c0 2.77-1.6 5.16-3.93 6.29-.92.46-1.96.71-3.07.71s-2.15-.25-3.07-.71c-.7-.34-1.33-.79-1.88-1.34-1.27-1.27-2.05-3.01-2.05-4.95z" fill="#f0d0b4"/></g></g><g><path d="m48 48.586-3-3-4.414 4.414 7.414 7.414 11.414-11.414-4.414-4.414zm0 6-4.586-4.586 1.586-1.586 3 3 7-7 1.586 1.586z"/><path d="m22.895 20.553-1.789.895.105.211c.722 1.444 2.174 2.341 3.789 2.341s3.067-.897 3.789-2.342l.105-.211-1.789-.895-.105.212c-.381.762-1.147 1.236-2 1.236s-1.619-.474-2-1.236z"/><circle cx="28" cy="18" r="1"/><circle cx="22" cy="18" r="1"/><path d="m63 31.583v-17.583c0-2.206-1.794-4-4-4-1.987 0-3.64 1.456-3.948 3.357-1.268.665-2.052 1.959-2.052 3.432 0 1.048.406 2.032 1.144 2.77l.761.761-.796 3.583c-.664 2.984-1.032 6.04-1.098 9.098h-2.775c-1.382 0-2.765.279-4.041.812-2.055-1.82-4.67-2.813-7.438-2.813h-6.431c-1.46-1.047-2.535-2.526-3.079-4.233 1.982-1.249 3.378-3.338 3.683-5.767h.07c2.206 0 4-1.794 4-4 0-.829-.254-1.6-.688-2.24l.53-2.823c.105-.561.158-1.134.158-1.703 0-5.092-4.142-9.234-9.234-9.234h-4.294c-2.947 0-5.615 1.537-7.092 4.048-1.912.299-3.38 1.957-3.38 3.952 0 1.946.233 3.887.676 5.78-.426.636-.676 1.399-.676 2.22 0 2.206 1.794 4 4 4h.069c.305 2.429 1.701 4.518 3.683 5.767-.543 1.707-1.618 3.186-3.079 4.233h-8.562c-4.472 0-8.111 3.639-8.111 8.111 0 1.41.37 2.802 1.069 4.024l.353.618c-.917 1.784-1.422 3.763-1.422 5.837 0 1.727.323 3.409.959 5l1.101 2.752c1.375 3.437 4.654 5.658 8.356 5.658h27.584v-7.992l9 8.357 12.241-11.366c1.753-1.629 2.759-3.936 2.759-6.347 0-2.626-1.176-5.073-3.227-6.714-.099-.079-.205-.15-.307-.225 2.205-1.681 3.534-4.278 3.534-7.13zm-30-12.583v-4c1.103 0 2 .897 2 2s-.897 2-2 2zm-18-2c0-1.103.897-2 2-2h.029c-.008.129-.029.255-.029.385v3.615c-1.103 0-2-.897-2-2zm2.503-4h-.503c-.566 0-1.104.122-1.592.335-.27-1.428-.408-2.881-.408-4.335 0-1.103.897-2 2-2h.618l.276-.553c1.064-2.126 3.201-3.447 5.578-3.447h4.294c3.989 0 7.234 3.245 7.234 7.234 0 .446-.042.895-.124 1.334l-.327 1.744c-.477-.2-1-.312-1.549-.312h-1-4c-2.757 0-5-2.243-5-5h-2c0 .566.075 1.114.202 1.642l-.431.172c-1.508.603-2.654 1.763-3.268 3.186zm1.497 7v-4.615c0-1.646.987-3.103 2.514-3.714l.432-.173c1.213 2.09 3.469 3.502 6.054 3.502h3v5c0 3.309-2.691 6-6 6s-6-2.691-6-6zm3.581 7.624c.764.243 1.576.376 2.419.376s1.655-.133 2.418-.376c.677 1.953 1.919 3.655 3.582 4.894v.482c0 3.309-2.691 6-6 6s-6-2.691-6-6v-.496c1.659-1.238 2.906-2.931 3.581-4.88zm-11.165 33.376c-2.879 0-5.43-1.727-6.499-4.4l-1.101-2.752c-.542-1.354-.816-2.787-.816-4.33 0-1.235.236-2.453.654-3.608l1.478 2.586 1.736-.992-3.063-5.361c-.527-.921-.805-1.969-.805-3.032 0-3.369 2.742-6.111 6.111-6.111h2.069l.495 2.473c.216 1.078.325 2.183.325 3.284 0 2.469-.961 4.79-2.707 6.536l-.51.51.322.645c.586 1.17.895 2.48.895 3.788v2.787c-.333-.01-.667-.023-1-.023h-1v2h1c1.93 0 3.873.175 5.773.521l8.563 1.557 1.52-1.52c.355-.354.846-.558 1.348-.558.727 0 1.38.404 1.705 1.054l.473.946h.618c1.103 0 2 .897 2 2s-.897 2-2 2zm25.584 0h-4.556c.344-.591.556-1.268.556-2 0-1.987-1.457-3.641-3.358-3.949-.684-1.268-1.99-2.051-3.438-2.051-1.043 0-2.024.406-2.762 1.144l-.778.778-7.533-1.37c-1.034-.188-2.08-.327-3.13-.419v-2.898c0-1.382-.279-2.765-.812-4.041 1.818-2.054 2.811-4.669 2.811-7.437 0-1.233-.123-2.47-.364-3.677l-.416-2.08h3.78c0 4.411 3.589 8 8 8s8-3.589 8-8h4v5.393c-.266.169-.526.347-.773.545-2.051 1.641-3.227 4.088-3.227 6.732 0 2.393 1.006 4.7 2.759 6.329l1.241 1.152zm24-15.33c0 1.839-.773 3.611-2.121 4.863l-10.879 10.102-10.879-10.102c-1.348-1.252-2.121-3.024-2.121-4.881 0-2.015.902-3.893 2.477-5.152 1.208-.967 2.727-1.5 4.275-1.5 1.828 0 3.546.712 4.839 2.004l1.41 1.41 1.41-1.41c1.291-1.292 3.01-2.004 4.838-2.004 1.548 0 3.067.533 4.275 1.5 1.574 1.259 2.476 3.137 2.476 5.17zm-6.751-8.67c-2.36 0-4.579.918-6.249 2.586-1.67-1.668-3.889-2.586-6.249-2.586-.939 0-1.867.157-2.751.447v-4.435c2.377.061 4.605 1.007 6.293 2.695l.51.51.645-.322c1.17-.585 2.48-.895 3.789-.895h4.763v-1c0-3.245.357-6.497 1.061-9.664l1.034-4.655-1.537-1.537c-.36-.36-.558-.841-.558-1.392 0-.7.389-1.329 1.016-1.642l.984-.492v-.618c0-1.103.897-2 2-2s2 .897 2 2v17.583c0 2.526-1.338 4.796-3.502 6.045-1.03-.406-2.132-.628-3.249-.628z"/></g></g></svg>